<?xml version="1.0" encoding="UTF-8" standalone="no"?>
<svg width="1440px" height="1024px" viewBox="0 0 1440 1024" version="1.1" xmlns="http://www.w3.org/2000/svg" xmlns:xlink="http://www.w3.org/1999/xlink">
    <!-- Generator: Sketch 3.8.1 (29687) - http://www.bohemiancoding.com/sketch -->
    <title>Background</title>
    <desc>Created with Sketch.</desc>
    <defs>
        <linearGradient x1="0%" y1="0%" x2="101.999998%" y2="100.999999%" id="linearGradient-1">
            <stop stop-color="#3023AE" offset="0%"></stop>
            <stop stop-color="#C96DD8" offset="100%"></stop>
        </linearGradient>
    </defs>
    <g id="Page-1" stroke="none" stroke-width="1" fill="none" fill-rule="evenodd">
        <g id="Wave-Mockup-Title-Alt-2">
            <g id="Background" transform="translate(-11.000000, -132.000000)">
                <g id="Wave" opacity="0.152227146" stroke="#FFFFFF" fill="#D8D8D8">
                    <path d="M13.3514475,1063.19093 C45.0935286,963.538282 45.2668301,883.589961 109.435386,865.06304 C173.603942,846.536119 225.191325,984.694169 327.638701,972.449058 C430.086076,960.203947 397.168086,824.090741 486.713438,819.968555 C576.258789,815.84637 619.827074,893.87433 692.728395,955.642296 C765.629715,1017.41026 752.440257,1082.92013 801.106394,1086.348 C849.77253,1089.77587 863.324804,948.592712 892.791479,865.063034 C922.258154,781.533355 957.712765,628.511167 1010.93479,599.293419 C1064.15681,570.07567 1173.63225,882.180993 1199.88285,904.303196 C1226.13345,926.425399 1322.92106,856.867008 1340.80106,846.808963 C1358.68107,836.750919 1409.02834,780.003644 1453.44779,904.30321 C1497.86725,1028.60278 1452.08991,1161.46211 1452.08991,1161.46211 L16.7258094,1156.12005 C16.7258094,1156.12005 -18.3906337,1162.84359 13.3514475,1063.19093 Z" id="Path-42" fill-opacity="0.3"></path>
                    <path d="M17.2829302,1030.34276 C49.0250113,897.848771 49.1983128,791.552832 113.366869,766.920214 C177.535424,742.287596 229.122807,925.976751 331.570183,909.696165 C434.017559,893.415578 401.099569,712.445161 490.64492,706.964477 C580.190272,701.483792 623.758557,805.226499 696.659877,887.350599 C769.561198,969.474699 756.37174,1056.57388 805.037876,1061.13143 C853.704013,1065.68898 867.256287,877.977767 896.722961,766.920206 C926.189636,655.862645 961.644247,452.410754 1014.86627,413.56406 C1068.0883,374.717365 1177.56373,789.679527 1203.81433,819.092281 C1230.06493,848.505036 1326.85254,756.023113 1344.73254,742.650359 C1362.61255,729.277604 1412.95982,653.828805 1457.37927,819.0923 C1501.79873,984.355795 1456.0214,1161 1456.0214,1161 L20.6572921,1153.89742 C20.6572921,1153.89742 -14.459151,1162.83675 17.2829302,1030.34276 Z" id="Path-42" fill-opacity="0.2"></path>
                    <path d="M18.2829302,999.068719 C50.0250113,832.832924 50.1983128,699.466953 114.366869,668.561228 C178.535424,637.655503 230.122807,868.124164 332.570183,847.697455 C435.017559,827.270746 402.099569,600.213196 491.64492,593.336763 C581.190272,586.460331 624.758557,716.622847 697.659877,819.661218 C770.561198,922.699588 757.37174,1031.98003 806.037876,1037.69823 C854.704013,1043.41644 868.256287,807.901439 897.722961,668.561219 C927.189636,529.220999 962.644247,273.956693 1015.86627,225.21704 C1069.0883,176.477388 1178.56373,697.11658 1204.81433,734.019782 C1231.06493,770.922985 1327.85254,654.888999 1345.73254,638.11065 C1363.61255,621.332301 1413.95982,526.669207 1458.37927,734.019806 C1502.79873,941.370404 1457.0214,1163 1457.0214,1163 L21.6572921,1154.08863 C21.6572921,1154.08863 -13.459151,1165.30451 18.2829302,999.068719 Z" id="Path-42" fill-opacity="0.1"></path>
                    <path d="M20.2829302,961.219967 C52.0250113,755.589292 52.1983128,590.617995 116.366869,552.388172 C180.535424,514.158349 232.122807,799.243918 334.570183,773.976448 C437.017559,748.708977 404.099569,467.842891 493.64492,459.336868 C583.190272,450.830845 626.758557,611.839526 699.659877,739.296129 C772.561198,866.752732 759.37174,1001.93066 808.037876,1009.00398 C856.704013,1016.07729 870.256287,724.749495 899.722961,552.38816 C929.189636,380.026825 964.644247,64.2694906 1017.86627,3.97942083 C1071.0883,-56.310649 1180.56373,587.710626 1206.81433,633.359221 C1233.06493,679.007815 1329.85254,535.475872 1347.73254,514.721357 C1365.61255,493.966842 1415.95982,376.870305 1460.37927,633.359249 C1504.79873,889.848194 1459.0214,1164 1459.0214,1164 L23.6572921,1152.97679 C23.6572921,1152.97679 -11.459151,1166.85064 20.2829302,961.219967 Z" id="Path-42" fill-opacity="0.05"></path>
                </g>
                <rect id="gradient-#08" fill="url(#linearGradient-1)" style="mix-blend-mode: color;" x="11" y="132" width="1440" height="1024"></rect>
            </g>
        </g>
    </g>
</svg>